<svg xmlns="http://www.w3.org/2000/svg" width="96" height="96"><path fill="#15265a" stroke="#15265a" d="m53.5 12-.5 1.5-2 11 5.5 6.5 7.5 1.5-4.5.5-8.5-6.5-1-9zM71.5 27l-3 4zM63.5 34l3.5.5L48.5 43l2-3zM76.5 35l4.5 3.5 2 9h-1L78.5 37zM57.5 47l3.5 1 1 5.5h-1L58.5 48zM46.5 50l2 1 1.5-.5-2.5 1.5z" opacity=".102"/><path fill="#1d93aa" stroke="#1d93aa" d="M30.5 10Q40.9 8.6 44 14.5l2 8-4.5 7.5-10 2-6.5-4.5-2-8 5.5-8.5zM58.5 10Q69.6 8.4 72 15.5l1 8-4.5 6.5-9 2-7.5-5.5-1-9 5.5-6.5zM23.5 34q16.5.5 25 9 7.9-8.1 23-9l8.5 4.5 3 12-4 16 1 4-5.5 7.5-27 11L18 74.5l-2-6 1-5q-5.1-6.9-3-21l3.5-5.5zM56 46l-7 5q-3-5-11-4l-4 5 1 4 12 8 15-9-1-7z" opacity=".992"/><path fill="#248c9c" stroke="#248c9c" d="M31.5 9Q42.3 7.7 45 14.5l1 4h-1L41.5 12zM59.5 9l5.5.5-5.5.5zM66.5 10l6.5 5.5-.5 2.5-5-7zM27.5 11 25 14.5 23.5 19l-.5-2.5zM45.5 23l.5 2.5-3.5 4.5.5-1.5zM30.5 34 44 39.5l-1.5-.5zM19.5 35l-1 2-2.5 1.5L13.5 55 13 42.5l4.5-6.5zM37.5 47l1.5.5-3.5 2.5zM42.5 47l5.5 3.5-1.5-.5zM82.5 51l.5 5.5h-1zM61.5 54l-4 5-3 2 2-3zM35.5 55 48 63.5l-1.5.5zM52.5 61l-1 2-2 1 1-2zM80.5 62l.5 1.5-1 3 1 4-6.5 8.5-6 2v-1l9.5-5.5 2-7-1-3zM16.5 70l4.5 7.5-4-3zM31.5 81 44 87.5l-1.5.5zM62.5 82l-1 2-11 5v-1z" opacity=".325"/></svg>