<svg xmlns="http://www.w3.org/2000/svg" width="977" height="977"><path fill="#1d93aa" stroke="#1d93aa" d="M334.5 95q34.6-2.6 57 7 30.4 12.6 49.5 36.5 24.3 26.7 25 77-6.2 53.8-39.5 80.5l-1.5 1.5q-17.7 15.3-42.5 23.5-19.9 7.1-50 4-46.8-8.7-71.5-39.5-16.4-17.6-24-44-6.3-18.7-4-46 4.7-27.1 16-46.5l2-1.5 23.5-26.5q22.1-20.9 60-26ZM621.5 95q29.7-1.7 50 6 29.6 10.9 47.5 33.5 28.4 28.1 27 86-6.2 47.3-34.5 72.5-29.5 33.5-94 32-29.6-3-48.5-16l-1.5-2-18.5-14-1.5-3-1.5-1.5q-33.2-28.8-31-93 8.7-49.3 41.5-74.5 24.5-21 65-26ZM260.5 345q57.1.9 99 17 64.2 23.1 113.5 60l1.5 3 15 11q47.7-40.3 110-66 30.8-12.7 67-20 27.2-5.8 62-4 57.6 7.4 86.5 43.5 18 20.5 26 51l3 17 1 54q-5.1 95.9-41 161l12 17 2 20q-11.2 50.3-45.5 77.5l-3 2q-20 18-48 28-26.5 10.5-62 12l-10.5 6q1.3 3.3-3.5 2l-77 42-50 22-22 8-9 1q-93.4-32.1-169-82-43.1-2.4-74-17-32.3-15.2-54.5-40.5l-9-13.5-2-1.5q-17.1-21.9-17-61l8.5-17.5 1.5-1.5 2-5q-43.4-80.1-40-207 5.8-53.2 36.5-81.5 29.9-33.6 90-37ZM402 476q-20 4-32 14-19 15-24 44 0 22 14 31l1 2 4 2 2 4q52 51 123 84 34-15 62-36l1-2q28-16 51-38l24-25 5-10q1-35-17-51l-2-1q-13-14-35-18-20-2-32 2-19 6-31 18l-20 21-5 4-42-36q-17-12-47-9Z" opacity=".996"/><path fill="#37778c" stroke="#37778c" d="M339.5 93q65.7.3 95.5 36.5l2.5 3.5 1.5 1.5q30.4 28.1 28 89-9.1 50.4-42.5 76.5-28.6 28.9-88 27-52.1-7.9-78.5-41.5-28-28.5-27-86 7.2-51.3 39.5-77.5 24.9-24.1 69-29Zm-4.5 2q-38 5-60 26l-24 27-2 1q-11 19-16 47-2 27 4 46 8 26 24 44 25 30 72 39 30 3 50-4 24-8 42-23l2-2q33-27 39-80-1-51-25-77-19-24-49-37-23-10-57-7ZM615.5 94q74.7-2.7 104.5 39.5 28.8 28.7 28 87-7.6 52.9-41.5 79.5-18.5 16.5-46 24-19.3 5.2-46 3-49.3-8.2-74.5-40.5-26.1-27.9-28-80 5.3-57.3 40.5-84.5 23.8-21.7 63-28Zm6.5 1q-41 5-65 26-36 26-43 82-1 28 7 49 9 22 25 38l3 4q25 26 72 32 61-1 91-33 28-25 34-72 1-58-27-86-18-23-47-34-21-8-50-6ZM249.5 344l52 2q36.8 6.2 68 18 68.5 26.5 120 70 50-43 117-69l60-17q26.2-5.8 60-4 53.6 5.9 82.5 36.5l1.5 1.5q22 21.5 31.5 55.5l4 22 1 41q-.6 47.4-10 86l-14 49-16 39q12.6 8.9 13 30-1.9 24.6-12 41-13.2 24.8-33.5 42.5-20.5 17.5-47 29-30 12-69 15-46.1 29.4-98 53l-55 23-18 4q-94.2-31.3-169-82-45.1-2.4-77-18-31.6-15.4-53.5-40.5-26.4-25.1-28-75 2.8-15.7 12-25-43.2-80.8-40-208 6.5-59.5 43.5-88.5 26.9-25.6 74-31Zm11.5 1q-61 3-90 37-31 28-37 82-3 126 40 207l-2 5-1 1-9 18q0 39 17 61l2 1 9 14q22 25 55 40 30 15 74 17 75 50 169 82l9-1 22-8 50-22 77-42q4 1 3-2l11-6q35-2 62-12 28-10 48-28l3-2q34-27 45-77l-2-20-12-17q36-66 41-161 7-80-27-119l-3-2-6-9-2-1q-29-31-84-36-33-1-59 5l-58 17q-67 26-116 69l-15-11-2-3q-49-37-113-60-42-16-99-17Z" opacity=".263"/><path fill="#37778c" stroke="#37778c" d="M401.5 476q30.7-2.7 47 9l42 36 5.5-4 19.5-21 28-17q11.9-5.1 31-3 28.5 2.5 41.5 20.5l13 20v2q5 11.5 3 30-11.5 19-28.5 32.5-22.7 22.2-50.5 38l-1.5 2q-27.8 21.2-62 36-70.3-33.2-122.5-84.5l-2.5-3.5-3.5-2.5-1.5-1.5q-13.8-8.7-13.5-31.5 4.6-28.9 23.5-43.5 12.6-10.4 32-14Zm.5 2q-21 3-33 15-17 14-21 40l1 16 12 16q54 55 129 90 60-29 108-71l26-26q6-5 7-15 0-29-14-42-13-18-39-23-25-3-39 5-29 16-48 40l-6-2-2-2q-18-23-45-37-14-6-36-4Z" opacity=".263"/></svg>