<svg xmlns="http://www.w3.org/2000/svg" width="1418" height="592"><path fill="#6e3672" stroke="#6e3672" d="M272.5 1q78.8-3.8 131 19Q471.9 47.6 517 98.5q37.9 41.1 59 99 19.7 49.8 16 123-5.9 58.6-27 102-26.9 55.6-70.5 94.5-41.1 37.9-99 59-49.8 19.7-123 16-58.6-5.9-102-27-55.6-26.9-94.5-70.5-37.9-41.1-59-99-19.7-49.8-16-123 5.9-58.6 27-102Q54.9 114.9 98.5 76q63.3-61.2 174-75ZM169 107l-3 1-1 3 1 21 1 1h15v114h-16l-1 3 1 22 4 1 68-1 1-23-17-2V134l16-1 1-23-2-3zm134 210-2 2v54l-17-9q-23-2-33 7-19 13-22 43-2 34 12 52 9 11 27 14 25 2 36-11l1 3 14 7 19-3 1-18-6-3-3-3V319l-1-2zm-132 47q-15 4-23 12l-3-10-25 1 1 109 5 2 24-1v-61l2-18 12-8q12-2 19 2l6 11v73l5 2 24-1 1-2v-68q0-19-8-29-11-17-40-14Zm254 0q-15 3-24 11-10 7-11 23 0 12 5 20l19 13 26 8 5 7-2 6-8 4h-15l-23-9-10 16v4q12 11 33 13 25 2 39-8 10-8 14-22 2-19-6-26l-15-11-29-10-4-4 1-6 11-6 15 1 15 6 10-17-1-3q-15-12-45-10Zm-72 2-3 3v107l5 2 22-1h2V367zM677.5 80h31q13.8 2.3 20.5 11.5 6.2 7.3 4 23l-9.5 14.5-8.5 4.5 9 7 13 41-15 .5-8-31.5-7.5-9.5q-9.4-4.4-23.5-3v43.5l-13 .5V82.5l1.5-1.5zm7.5 11-2 2v35q18 2 29-4 7-5 8-15l-4-11q-9-11-31-7ZM751 80h53.5l1.5 1.5-.5 10.5H764v32h39.5l.5 11h-40v36h43.5l.5 11h-57zM861.5 80q22.6-2.2 36.5 3l-3.5 13q-8.8-5.2-23-5-20.7 1.3-30.5 13.5-8.6 9.5-9 27 .8 19.5 10 29.5l3.5 2q9.7 10.3 31 9l11.5-3.5V140h-21v-11h34v48.5q-15.7 8.3-42.5 5.5-19.3-3.2-29.5-15.5-13.1-14.4-11-44 3.6-20.4 16.5-31.5 10.4-9.1 27-12ZM978.5 80q20.5-2.5 31.5 4.5l-4.5 11.5q-8.2-5.3-22-5L971 97.5l-3 8 6.5 12.5 26 12 7.5 6.5q6.8 6.7 6 21-2.2 14.3-12.5 20.5-11.5 7.5-33 5l-16.5-6.5 4.5-11.5q9 7.5 26 7l14.5-7.5 3-10-5-11.5-27.5-13-8.5-7.5q-5.3-6.2-5-18 1.7-12.8 10.5-18.5zM1106 80h53.5l1.5 1.5-.5 10.5H1119v32h39.5l.5 11h-40v36h43.5l.5 11h-57zM1187.5 80h31q13.8 2.3 20.5 11.5 6.2 7.3 4 23l-9.5 14.5-8.5 4.5 9 7 13 41-15 .5-8-31.5-7.5-9.5q-9.4-4.4-23.5-3v43.5l-13 .5V82.5l1.5-1.5zm7.5 11-2 2v35q18 2 29-4 7-5 8-15l-4-11q-9-11-31-7ZM1260 80h53.5l1.5 1.5-.5 10.5H1273v32h39.5l.5 11h-40v36h43.5l.5 11h-57zM1344.5 80q46.6-5.6 64.5 17.5 11.7 13.8 9 42-3.3 20.7-16.5 31.5-11 9.5-29 12h-36l-2.5-1V82.5l1.5-1.5zm7.5 11-1 1-4 1v78l3 1q27 3 41-9 12-10 13-32 0-19-9-28-13-15-43-12ZM921 81l13 .5V182l-13-.5zM1020 81h74.5l.5 12h-31v88.5l-14 .5V93.5l-30-.5zM779.5 230q46.6-5.6 64.5 17.5 11.7 13.8 9 42-3.3 20.7-16.5 31.5-11 9.5-29 12h-36l-2.5-1v-99.5l1.5-1.5zm7.5 11-1 1-4 1v78l3 1q27 3 41-9 12-10 13-32 0-19-9-28-13-15-43-12ZM925.5 230q20.5-2.5 31.5 4.5l-4.5 11.5q-8.2-5.3-22-5l-12.5 6.5-3 8 6.5 12.5 26 12 7.5 6.5q6.8 6.7 6 21-2.2 14.3-12.5 20.5-11.5 7.5-33 5l-16.5-6.5 4.5-11.5q9 7.5 26 7l14.5-7.5 3-10-5-11.5-27.5-13-8.5-7.5q-5.3-6.2-5-18 1.7-12.8 10.5-18.5zM670 231l17 1.5 47.5 79.5.5-3.5-1-77.5 13 .5V332h-14.5l-.5-1.5-48.5-79.5-.5 81-13-.5zM869 231l13 .5V332l-13-.5zM872.5 379q22.7 1.3 33.5 14.5 14.7 14.8 12 47-3.3 21.2-16.5 32.5-10.8 10.2-31 11-21.7-1.2-32.5-13.5-15.7-14.8-13-48 3.1-19.4 14.5-30.5 10.9-12.1 33-13Zm-4.5 12-13 5q-16 11-16 37 1 18 10 29 6 8 19 10 14 1 22-6 13-11 14-34 0-19-9-29-7-13-27-12ZM678.5 380q36.8-5.3 50.5 12.5 6.6 8.4 4 26-2.6 10.9-10.5 16.5-12.3 10.2-37 8l-2.5-1v39.5l-13 .5V381.5l7.5-.5zm7.5 11-1 1-2 1v37l12 2 17-5q7-5 8-16l-3-11q-8-12-31-9ZM757.5 380h31q13.8 2.3 20.5 11.5 6.2 7.3 4 23l-9.5 14.5-8.5 4.5 9 7 13 41-15 .5-8-31.5-7.5-9.5q-9.4-4.4-23.5-3v43.5l-13 .5v-99.5l1.5-1.5zm7.5 11-2 2v35q18 2 29-4 7-5 8-15l-4-11q-9-11-31-7ZM1064.5 380q46.6-5.6 64.5 17.5 11.7 13.8 9 42-3.3 20.7-16.5 31.5-11 9.5-29 12h-36l-2.5-1v-99.5l1.5-1.5zm7.5 11-1 1-4 1v78l3 1q27 3 41-9 12-10 13-32 0-19-9-28-13-15-43-12ZM1154 380h53.5l1.5 1.5-.5 10.5H1167v32h39.5l.5 11h-40v36h43.5l.5 11h-57zM1235.5 380h31q13.8 2.3 20.5 11.5 6.2 7.3 4 23l-9.5 14.5-8.5 4.5 9 7 13 41-15 .5-8-31.5-7.5-9.5q-9.4-4.4-23.5-3v43.5l-13 .5v-99.5l1.5-1.5zm7.5 11-2 2v35q18 2 29-4 7-5 8-15l-4-11q-9-11-31-7ZM923 381l16 1.5 25.5 83.5 27.5-85h14.5l.5 2.5-35 98.5-17-1.5zM1018 381l13 .5V482l-13-.5z" opacity=".984"/><path fill="#6e3672" stroke="#6e3672" d="M276.5 389q19.3-2.3 24.5 9.5v45l-5.5 8.5q-6.5 4.5-19 3l-12.5-8.5q-7.1-11.4-5-32 1.7-14.8 10.5-22.5z" opacity=".984"/><path fill="#fdfcfd" stroke="#fdfcfd" d="M168.5 107h68l2.5 2.5-1 23.5-16 .5V247l17 1.5-1 23.5-68.5 1-3.5-1-1-22.5 1-2.5 16-.5V133h-15.5l-.5-1.5-1-21 1-2.5zM302.5 317h26l1.5 1.5v133l2.5 3.5 6.5 2.5-1 18.5-19.5 3-13.5-7.5-1.5-2.5q-10.8 12.7-36 11-17.6-2.9-26.5-14.5-14.4-17.6-12-52 2.9-29.1 21.5-42.5 10.7-9.3 33-7l17 9 .5-54.5zM277 389l-7 3q-9 8-11 23-2 20 5 32l13 8q12 2 19-3l5-8v-45q-5-12-24-10ZM170.5 364q30-3 40.5 13.5 7.8 10.7 8 29v68l-1 2.5-24.5 1-4.5-2.5v-73l-6.5-10.5q-6.5-4-19-2l-11.5 7.5-2 18V477l-24.5 1-4.5-2.5-1-108.5 24.5-1 3.5 10q8.4-8.3 22.5-12ZM424.5 364q30.5-2.3 45.5 10l1 2.5-10.5 17.5-15-6-15-1-10.5 5.5-1 6 3.5 4.5 29 10 15.5 10.5q8.3 7.7 6 26-3.6 14.9-14.5 22.5-13.7 9.8-39 8-20.6-2.4-32.5-13.5v-4l9.5-15.5 23 9h15l8.5-4.5 2-6-5.5-6.5-26-8-18.5-13.5q-5.3-7.2-5-20 1.3-15.2 10.5-22.5 9.1-8.4 24-11ZM352.5 366l26.5 1v109.5l-2.5.5-22 1-4.5-2.5v-107z"/></svg>